<svg width="362" height="208" viewBox="0 0 362 208" fill="none" xmlns="http://www.w3.org/2000/svg">
<path d="M152.156 90.9115C152.156 129.708 126.413 161.156 94.607 161.156C62.8012 161.156 37.0582 129.708 37.0582 90.9115H152.156Z" fill="#FFD6C6"/>
<path d="M145.931 90.9115C145.931 131.462 119.831 164.364 87.6363 164.364C55.4414 164.364 29.3742 131.462 29.3742 90.9115H145.931Z" stroke="black" stroke-width="12" stroke-miterlimit="10"/>
<path d="M46.7523 164.364H126.672" stroke="black" stroke-width="12" stroke-miterlimit="10"/>
<path d="M33.2324 164.364H40.9488" stroke="black" stroke-width="12" stroke-miterlimit="10"/>
<path d="M31.0602 108.519C31.0602 108.519 18.7398 98.8947 12.9039 106.318C7.06797 113.742 8.59179 130.828 29.3742 138.326C41.4027 142.653 46.7523 143.213 46.7523 143.213" stroke="black" stroke-width="12" stroke-miterlimit="10"/>
<path d="M101.545 90.9115V99.3051V103.521" stroke="black" stroke-width="12" stroke-miterlimit="10"/>
<path d="M101.545 106.393V109.937" stroke="black" stroke-width="12" stroke-miterlimit="10"/>
<path d="M117.075 109.937H98.7246V134.745H117.075V109.937Z" fill="#FFF7C3"/>
<path d="M110.721 110.981H92.3699V135.789H110.721V110.981Z" stroke="black" stroke-width="12" stroke-miterlimit="10"/>
<path d="M101.545 81.4361V65.507" stroke="black" stroke-width="12" stroke-miterlimit="10"/>
<path d="M88.4469 82.2568V38.4238" stroke="black" stroke-width="12" stroke-miterlimit="10"/>
<path d="M74.1164 81.4361V60.3217" stroke="black" stroke-width="12" stroke-miterlimit="10"/>
<path d="M101.545 60.3217V57.0389" stroke="black" stroke-width="12" stroke-miterlimit="10"/>
<path d="M215.932 114.74V116.963L213.436 118.094V127.064C212.084 127.506 210.589 127.844 208.951 128.078C207.339 128.338 205.805 128.468 204.349 128.468C199.825 128.468 196.432 127.376 194.17 125.192C191.934 123.008 190.816 119.524 190.816 114.74C190.816 109.982 191.947 106.511 194.209 104.327C196.497 102.117 199.877 101.012 204.349 101.012C207.209 101.012 210.238 101.363 213.436 102.065V108.968H210.706L210.043 104.561C208.197 104.119 206.286 103.898 204.31 103.898C201.84 103.898 199.877 104.236 198.421 104.912C196.991 105.588 195.951 106.719 195.301 108.305C194.651 109.865 194.326 112.01 194.326 114.74C194.326 117.522 194.651 119.693 195.301 121.253C195.951 122.813 196.978 123.931 198.382 124.607C199.812 125.257 201.749 125.582 204.193 125.582C206.403 125.582 208.379 125.322 210.121 124.802V118.094L207.625 116.963V114.74H215.932ZM239.139 125.855V128H234.498L233.484 125.192C232.418 126.284 231.261 127.09 230.013 127.61C228.791 128.13 227.413 128.39 225.879 128.39C223.383 128.39 221.537 127.909 220.341 126.947C219.145 125.985 218.547 124.425 218.547 122.267C218.547 119.979 219.262 118.328 220.692 117.314C222.122 116.274 224.423 115.754 227.595 115.754C228.843 115.754 229.935 115.871 230.871 116.105C231.833 116.313 232.613 116.573 233.211 116.885V115.364C233.211 114.168 233.055 113.245 232.743 112.595C232.457 111.919 231.924 111.438 231.144 111.152C230.39 110.84 229.285 110.684 227.829 110.684C225.203 110.684 222.473 110.996 219.639 111.62V108.812C222.525 108.188 225.281 107.876 227.907 107.876C230.351 107.876 232.184 108.123 233.406 108.617C234.654 109.111 235.473 109.826 235.863 110.762C236.279 111.698 236.487 112.998 236.487 114.662V124.685L239.139 125.855ZM221.979 122.033C221.979 123.307 222.291 124.217 222.915 124.763C223.565 125.309 224.735 125.582 226.425 125.582C227.673 125.582 228.869 125.361 230.013 124.919C231.183 124.451 232.249 123.814 233.211 123.008V119.108C231.755 118.692 230 118.484 227.946 118.484C225.684 118.484 224.124 118.77 223.266 119.342C222.408 119.914 221.979 120.811 221.979 122.033ZM278.036 125.855V128H272.108V115.091C272.108 113.557 271.77 112.452 271.094 111.776C270.418 111.074 269.417 110.723 268.091 110.723C267.181 110.723 266.336 110.84 265.556 111.074C264.802 111.282 263.554 111.698 261.812 112.322V124.685L264.464 125.855V128H258.536V115.091C258.536 113.557 258.198 112.452 257.522 111.776C256.846 111.074 255.845 110.723 254.519 110.723C253.635 110.723 252.803 110.84 252.023 111.074C251.269 111.282 250.008 111.698 248.24 112.322V124.685L250.892 125.855V128H242.312V125.855L244.964 124.685V111.737L242.312 110.645V108.422H246.641L247.655 110.021C249.189 109.241 250.567 108.695 251.789 108.383C253.011 108.045 254.272 107.876 255.572 107.876C256.872 107.876 257.951 108.058 258.809 108.422C259.693 108.786 260.421 109.358 260.993 110.138C262.553 109.332 263.957 108.76 265.205 108.422C266.479 108.058 267.792 107.876 269.144 107.876C270.704 107.876 271.939 108.136 272.849 108.656C273.759 109.15 274.409 109.956 274.799 111.074C275.189 112.166 275.384 113.648 275.384 115.52V124.685L278.036 125.855ZM290.792 107.876C293.444 107.876 295.589 108.708 297.227 110.372C298.891 112.01 299.723 114.454 299.723 117.704V119.264H284.435C284.565 121.006 284.877 122.345 285.371 123.281C285.891 124.191 286.632 124.828 287.594 125.192C288.582 125.556 289.934 125.738 291.65 125.738C294.12 125.738 296.564 125.439 298.982 124.841V127.649C297.968 127.909 296.785 128.117 295.433 128.273C294.081 128.455 292.794 128.546 291.572 128.546C288.114 128.546 285.488 127.766 283.694 126.206C281.9 124.646 281.003 121.981 281.003 118.211C281.003 114.701 281.887 112.101 283.655 110.411C285.423 108.721 287.802 107.876 290.792 107.876ZM290.597 110.684C288.569 110.684 287.087 111.139 286.151 112.049C285.215 112.959 284.656 114.441 284.474 116.495H296.252C296.096 114.571 295.563 113.128 294.653 112.166C293.743 111.178 292.391 110.684 290.597 110.684ZM311.959 128.312C309.463 128.312 307.669 127.805 306.577 126.791C305.511 125.777 304.978 124.061 304.978 121.643V111.152H301.936V108.968L304.978 108.422L306.148 102.767H308.254V108.422L314.923 108.461V111.191L308.254 111.152V121.643C308.254 122.709 308.384 123.515 308.644 124.061C308.904 124.607 309.333 124.984 309.931 125.192C310.529 125.4 311.4 125.504 312.544 125.504C313.428 125.504 314.351 125.413 315.313 125.231V127.961C314.377 128.195 313.259 128.312 311.959 128.312ZM327.888 107.876C330.54 107.876 332.685 108.708 334.323 110.372C335.987 112.01 336.819 114.454 336.819 117.704V119.264H321.531C321.661 121.006 321.973 122.345 322.467 123.281C322.987 124.191 323.728 124.828 324.69 125.192C325.678 125.556 327.03 125.738 328.746 125.738C331.216 125.738 333.66 125.439 336.078 124.841V127.649C335.064 127.909 333.881 128.117 332.529 128.273C331.177 128.455 329.89 128.546 328.668 128.546C325.21 128.546 322.584 127.766 320.79 126.206C318.996 124.646 318.099 121.981 318.099 118.211C318.099 114.701 318.983 112.101 320.751 110.411C322.519 108.721 324.898 107.876 327.888 107.876ZM327.693 110.684C325.665 110.684 324.183 111.139 323.247 112.049C322.311 112.959 321.752 114.441 321.57 116.495H333.348C333.192 114.571 332.659 113.128 331.749 112.166C330.839 111.178 329.487 110.684 327.693 110.684ZM360.443 125.855V128H355.802L354.788 125.192C353.722 126.284 352.565 127.09 351.317 127.61C350.095 128.13 348.717 128.39 347.183 128.39C344.687 128.39 342.841 127.909 341.645 126.947C340.449 125.985 339.851 124.425 339.851 122.267C339.851 119.979 340.566 118.328 341.996 117.314C343.426 116.274 345.727 115.754 348.899 115.754C350.147 115.754 351.239 115.871 352.175 116.105C353.137 116.313 353.917 116.573 354.515 116.885V115.364C354.515 114.168 354.359 113.245 354.047 112.595C353.761 111.919 353.228 111.438 352.448 111.152C351.694 110.84 350.589 110.684 349.133 110.684C346.507 110.684 343.777 110.996 340.943 111.62V108.812C343.829 108.188 346.585 107.876 349.211 107.876C351.655 107.876 353.488 108.123 354.71 108.617C355.958 109.111 356.777 109.826 357.167 110.762C357.583 111.698 357.791 112.998 357.791 114.662V124.685L360.443 125.855ZM343.283 122.033C343.283 123.307 343.595 124.217 344.219 124.763C344.869 125.309 346.039 125.582 347.729 125.582C348.977 125.582 350.173 125.361 351.317 124.919C352.487 124.451 353.553 123.814 354.515 123.008V119.108C353.059 118.692 351.304 118.484 349.25 118.484C346.988 118.484 345.428 118.77 344.57 119.342C343.712 119.914 343.283 120.811 343.283 122.033Z" fill="black"/>
</svg>
